<?xml version="1.0" standalone="no"?>
<!DOCTYPE svg PUBLIC "-//W3C//DTD SVG 20010904//EN"
 "http://www.w3.org/TR/2001/REC-SVG-20010904/DTD/svg10.dtd">
<svg version="1.0" xmlns="http://www.w3.org/2000/svg"
 width="256.000000pt" height="256.000000pt" viewBox="0 0 256.000000 256.000000"
 preserveAspectRatio="xMidYMid meet">
<metadata>
Created by potrace 1.14, written by Peter Selinger 2001-2017
</metadata>
<g transform="translate(0.000000,256.000000) scale(0.100000,-0.100000)"
fill="#000000" stroke="none">
<path d="M587 2036 c-141 -41 -191 -212 -94 -323 34 -39 97 -72 137 -73 77 0
159 53 191 125 69 151 -75 317 -234 271z"/>
<path d="M1064 1893 c-21 -22 -25 -35 -20 -62 11 -69 -14 -66 512 -69 l474 -3
26 28 c21 23 25 35 20 63 -11 72 7 70 -518 70 l-469 0 -25 -27z"/>
<path d="M574 1471 c-64 -22 -123 -90 -130 -153 -8 -68 12 -126 60 -174 60
-61 133 -78 204 -48 142 59 175 242 61 338 -59 50 -121 62 -195 37z m132 -86
c25 -16 54 -74 54 -108 0 -62 -85 -128 -146 -113 -39 10 -81 57 -89 100 -20
102 94 178 181 121z"/>
<path d="M1064 1333 c-21 -22 -25 -35 -20 -62 11 -69 -14 -66 512 -69 l474 -3
26 28 c21 23 25 35 20 63 -11 72 7 70 -518 70 l-469 0 -25 -27z"/>
<path d="M591 918 c-214 -57 -190 -364 31 -394 79 -11 162 40 199 120 68 149
-71 315 -230 274z m116 -95 c52 -35 67 -105 33 -160 -79 -131 -271 -23 -203
114 31 65 109 85 170 46z"/>
<path d="M1064 773 c-21 -23 -25 -35 -20 -63 11 -72 -7 -70 518 -70 l469 0 25
27 c21 23 25 35 20 63 -11 72 7 70 -518 70 l-469 0 -25 -27z"/>
</g>
</svg>
